Coordinates
version=1
nRows=4
nColumns=107
inDegrees=yes

Units are S.I. units (second, meters, Newtons, ...)
If the header above contains a line with 'inDegrees', this indicates whether rotational values are in degrees (yes) or radians (no).

endheader
time	sternoclavicular_r2	sternoclavicular_r3	unrotscap_r3	unrotscap_r2	acromioclavicular_r2	acromioclavicular_r3	acromioclavicular_r1	unrothum_r1	unrothum_r3	unrothum_r2	elv_angle	shoulder_elv	shoulder1_r2	shoulder_rot	elbow_flexion	pro_sup	deviation	flexion	proximal_distal_r1	proximal_distal_r3	cmc_flexion	cmc_abduction	mp_flexion	ip_flexion	mcp2_flexion	mcp2_abduction	pm2_flexion	md2_flexion	mcp3_flexion	mcp3_abduction	pm3_flexion	md3_flexion	mcp4_flexion	mcp4_abduction	pm4_flexion	md4_flexion	mcp5_flexion	mcp5_abduction	pm5_flexion	md5_flexion	bicpt_tx	bicpt_ty	bicpt_tz	bicpt2_tx	bicpt2_ty	bicpt2_tz	ptpt_tx	ptpt_ty	ptpt_tz	FCUpt_tx	FCUpt_ty	FCUpt_tz	EDCpt_tx	EDCpt_ty	EDCpt_tz	APLpt_tx	APLpt_ty	APLpt_tz	FPLpt_tx	FPLpt_ty	FPLpt_tz	FPLpt2_tx	FPLpt2_ty	FPLpt2_tz	PEC1pt2_tx	PEC1pt2_ty	PEC1pt2_tz	PEC1pt3_tx	PEC1pt3_ty	PEC1pt3_tz	PEC2pt2_tx	PEC2pt2_ty	PEC2pt2_tz	PEC2pt3_tx	PEC2pt3_ty	PEC2pt3_tz	PEC3pt2_tx	PEC3pt2_ty	PEC3pt2_tz	PEC3pt3_tx	PEC3pt3_ty	PEC3pt3_tz	DELT2pt2a_tx	DELT2pt2a_ty	DELT2pt2a_tz	DELT2pt2_tx	DELT2pt2_ty	DELT2pt2_tz	LAT1pt2_tx	LAT1pt2_ty	LAT1pt2_tz	LAT1pt3_tx	LAT1pt3_ty	LAT1pt3_tz	LAT2pt2_tx	LAT2pt2_ty	LAT2pt2_tz	LAT2pt3_tx	LAT2pt3_ty	LAT2pt3_tz	LAT3pt2_tx	LAT3pt2_ty	LAT3pt2_tz	LAT3pt3_tx	LAT3pt3_ty	LAT3pt3_tz
      0.00000000	     -0.32551296	      0.13787193	     -0.13787193	      0.32551296	     -0.06590975	      0.53265945	      0.23942676	     -0.23942676	     -0.53265945	      0.06590975	     98.14390491	     77.06808780	     -1.71293428	    -16.80049686	     28.59961110	     13.62060634	      0.06562563	     -0.67755120	      0.08553831	     -0.33877560	     -4.79113587	     -1.01745488	    -30.18903484	    -25.74156625	    -21.67116493	     11.61917049	     15.82359145	    -21.46429569	     47.38535091	     11.21273758	     82.72657856	     62.25971211	     36.74652603	     -5.36967969	     89.88834598	     40.75995930	    -17.62543420	    -13.09216083	    -11.93443994	      4.96357558	      0.00084599	     -0.03087795	     -0.00482799	      0.01572913	     -0.01796922	     -0.00979823	      0.00654359	     -0.06555076	     -0.00114721	      0.00523178	     -0.18394502	      0.00006287	     -0.00163447	      0.00041455	      0.00014722	      0.00030878	      0.00012351	      0.00061756	      0.00039524	      0.00118572	      0.00066697	     -0.00033787	      0.00013252	      0.00015903	      0.00252612	      0.00886284	      0.00616545	     -0.00826342	      0.01995209	     -0.01892451	      0.00252612	      0.00886284	      0.00616545	      0.00055660	      0.01849636	     -0.00971915	      0.00398190	      0.00492851	      0.01605007	      0.00000000	      0.00794459	      0.00000000	     -0.00723584	     -0.03343902	     -0.00655158	      0.01186152	     -0.00033577	     -0.00227033	     -0.00089913	      0.01507111	     -0.00616545	      0.00248331	      0.02175035	     -0.01798257	     -0.00603701	      0.01305877	     -0.00552322	     -0.01258780	      0.02757327	     -0.03087008	     -0.02363423	      0.01460013	     -0.00740711	     -0.01567052	      0.03185484	     -0.03857689
      0.03333333	     -0.32529729	      0.13778058	     -0.13778058	      0.32529729	     -0.06586608	      0.53230652	      0.23926812	     -0.23926812	     -0.53230652	      0.06586608	     98.16655664	     77.01702421	     -1.71332963	    -16.77733778	     28.60381431	     13.62830261	      0.06552081	     -0.67746024	      0.08540713	     -0.33873012	     -4.79086611	     -1.01765205	    -30.18983316	    -25.74179172	    -21.66566724	     11.62160305	     15.82312168	    -21.46423035	     47.38574235	     11.21128549	     82.72730968	     62.26007721	     36.74798349	     -5.36969433	     89.88846715	     40.75992645	    -17.62133966	    -13.09291825	    -11.93286676	      4.96372471	      0.00084613	     -0.03087843	     -0.00482807	      0.01572961	     -0.01797037	     -0.00979769	      0.00654302	     -0.06555113	     -0.00114783	      0.00523249	     -0.18394492	      0.00006266	     -0.00163539	      0.00041480	      0.00014728	      0.00030879	      0.00012351	      0.00061757	      0.00039525	      0.00118574	      0.00066698	     -0.00033802	      0.00013252	      0.00015903	      0.00252445	      0.00885697	      0.00616137	     -0.00825794	      0.01993887	     -0.01891197	      0.00252445	      0.00885697	      0.00616137	      0.00055623	      0.01848410	     -0.00971271	      0.00397999	      0.00492525	      0.01604545	      0.00000000	      0.00793399	      0.00000000	     -0.00723105	     -0.03341686	     -0.00654279	      0.01184715	     -0.00033509	     -0.00226353	     -0.00089853	      0.01506112	     -0.00616137	      0.00248166	      0.02173593	     -0.01797065	     -0.00603301	      0.01305012	     -0.00551956	     -0.01257946	      0.02755500	     -0.03084962	     -0.02361857	      0.01459046	     -0.00740220	     -0.01566014	      0.03183373	     -0.03855133
      0.06666667	     -0.32221486	      0.13647501	     -0.13647501	      0.32221486	     -0.06524196	      0.52726254	      0.23700088	     -0.23700088	     -0.52726254	      0.06524196	     98.80445903	     76.28723332	     -1.72446313	    -20.48552904	     28.53292590	     17.02050011	      0.02782702	     -0.69326744	      0.03713137	     -0.34663372	     -4.08921151	     -1.67063659	    -32.33565733	    -24.84845881	    -19.71676047	     11.82406675	     12.28593585	    -21.90586145	     46.78772102	     10.37372910	     83.49349555	     64.20269433	     36.36629359	     -5.76479967	     90.90698191	     40.02360709	    -17.90339036	    -13.40108768	    -11.92818449	      4.98465302	      0.00084378	     -0.03087031	     -0.00482676	      0.01592744	     -0.01795111	     -0.00955293	      0.00629238	     -0.06571320	     -0.00142109	      0.00554818	     -0.18389812	     -0.00002446	     -0.00204246	      0.00052695	      0.00016829	      0.00030681	      0.00012273	      0.00061363	      0.00039272	      0.00117816	      0.00066272	     -0.00025988	      0.00011152	      0.00013382	      0.00250053	      0.00877304	      0.00610298	     -0.00817969	      0.01974993	     -0.01873277	      0.00250053	      0.00877304	      0.00610298	      0.00055096	      0.01830895	     -0.00962068	      0.00395249	      0.00487858	      0.01597875	      0.00000000	      0.00778328	      0.00000000	     -0.00716253	     -0.03310021	     -0.00641769	      0.01405486	     -0.00044690	     -0.00346858	     -0.00089002	      0.01491840	     -0.00610298	      0.00245815	      0.02152997	     -0.01780037	     -0.00597584	      0.01292646	     -0.00546726	     -0.01246026	      0.02729390	     -0.03055730	     -0.02339477	      0.01445220	     -0.00733206	     -0.01551175	      0.03153208	     -0.03818603
      0.10000000	     -0.32149793	      0.13617135	     -0.13617135	      0.32149793	     -0.06509679	      0.52608937	      0.23647355	     -0.23647355	     -0.52608937	      0.06509679	     98.93154491	     76.11749366	     -1.72668119	    -21.58884890	     28.80916727	     19.40058639	      0.04887933	     -0.61683020	      0.06438125	     -0.30841510	     -3.70819905	     -2.44991436	    -31.60605825	    -27.23712736	    -20.73862503	     12.10947136	     12.87579130	    -24.16003163	     46.29009299	     10.76577787	     83.96521033	     64.57139704	     36.30818325	     -5.15111995	     90.46328062	     41.16956390	    -17.24042463	    -13.41028162	    -12.69022217	      5.00140591	      0.00085292	     -0.03090197	     -0.00483186	      0.01605055	     -0.01802615	     -0.00937158	      0.00611652	     -0.06582691	     -0.00161282	      0.00577180	     -0.18386334	     -0.00008041	     -0.00232806	      0.00060776	      0.00017932	      0.00031249	      0.00012500	      0.00062498	      0.00039999	      0.00119996	      0.00067498	     -0.00022211	      0.00010034	      0.00012041	      0.00249496	      0.00875352	      0.00608940	     -0.00816149	      0.01970599	     -0.01869109	      0.00249496	      0.00875352	      0.00608940	      0.00054974	      0.01826821	     -0.00959927	      0.00394607	      0.00486772	      0.01596306	      0.00000000	      0.00774844	      0.00000000	     -0.00714659	     -0.03302656	     -0.00638877	      0.01467622	     -0.00048123	     -0.00386944	     -0.00088804	      0.01488521	     -0.00608940	      0.00245268	      0.02148207	     -0.01776076	     -0.00596254	      0.01289770	     -0.00545509	     -0.01243253	      0.02723317	     -0.03048931	     -0.02334272	      0.01442005	     -0.00731574	     -0.01547724	      0.03146192	     -0.03810107
